<!DOCTYPE svg PUBLIC "-//W3C//DTD SVG 1.1//EN" "http://www.w3.org/Graphics/SVG/1.1/DTD/svg11.dtd">
<!-- Uploaded to: SVG Repo, www.svgrepo.com, Transformed by: SVG Repo Mixer Tools -->
<svg width="800px" height="800px" viewBox="-3.6 -3.6 43.20 43.20" xmlns="http://www.w3.org/2000/svg" xmlns:xlink="http://www.w3.org/1999/xlink" aria-hidden="true" role="img" class="iconify iconify--twemoji" preserveAspectRatio="xMidYMid meet" fill="" stroke="">
<g id="SVGRepo_bgCarrier" stroke-width="0" transform="translate(0,0), scale(1)"/>
<g id="SVGRepo_tracerCarrier" stroke-linecap="round" stroke-linejoin="round" stroke="#CCCCCC" stroke-width="0.072"/>
<g id="SVGRepo_iconCarrier">
<path fill="#314158" d="M36 32a4 4 0 0 1-4 4H4a4 4 0 0 1-4-4V4a4 4 0 0 1 4-4h28a4 4 0 0 1 4 4v28z"/>
<path fill="#FFF" d="M25.66 15.915c1.953 0 2.729.992 2.729 2.977c0 5.984-3.906 10.48-10.108 10.48c-6.294 0-10.666-4.992-10.666-11.41c0-6.449 4.341-11.41 10.666-11.41c4.682 0 8.526 2.201 8.526 4.372c0 1.333-.836 2.17-1.922 2.17c-2.108 0-2.542-2.263-6.604-2.263c-3.875 0-5.829 3.379-5.829 7.131c0 3.782 1.892 7.132 5.829 7.132c2.45 0 5.272-1.365 5.272-4.899h-3.164c-1.271 0-2.17-.899-2.17-2.17c0-1.302.992-2.108 2.17-2.108h5.271z"/>
</g>
</svg>